<?xml version="1.0" encoding="utf-8"?>
<svg width="286px" height="211px" viewBox="0 0 286 211" version="1.1" xmlns="http://www.w3.org/2000/svg">
  <defs/>
  <title>Group 5</title>
  <desc>Created with Sketch.</desc>
  <g id="Page-1" stroke="none" stroke-width="1" fill="none" fill-rule="evenodd">
    <g id="Artboard-Copy-17" transform="translate(-72.000000, -92.000000)" fill="#242424" fill-rule="nonzero">
      <g id="Group-5" transform="translate(72.000000, 68.000000)">
        <g id="Group-2">
          <g id="Group">
            <path d="M86.9791294,165 C106.221825,165 122,180.787589 122,200.125298 C122,219.295943 106.221825,235 86.9373882,235 C67.7364341,235 52,219.295943 52,200.125298 C52,180.787589 67.7364341,165 86.9791294,165 Z M145.915493,165 L145.915493,194.834367 L165.431649,165 L181.544325,165 L159.27092,198.772333 L184,234 L167.025684,234 L145.915493,203.780397 L145.915493,234 L132,234 L132,165 L145.915493,165 Z M13.915493,165 L13.915493,194.834367 L33.4316487,165 L49.5443248,165 L27.2709196,198.772333 L52,234 L35.0256835,234 L13.915493,203.780397 L13.915493,234 L0,234 L0,165 L13.915493,165 Z M235,165 L235,178.654467 L207.666667,178.654467 L207.666667,192.137717 L231.119342,192.137717 L231.119342,205.9634 L207.666667,205.9634 L207.666667,220.217122 L235,220.217122 L235,234 L194,234 L194,165 L235,165 Z M258.666667,165 L258.666667,220.217122 L286,220.217122 L286,234 L245,234 L245,165 L258.666667,165 Z M86.9581061,178.592233 C75.185929,178.592233 65.592233,188.23726 65.592233,200.062902 C65.592233,211.804675 75.185929,221.407767 86.9581061,221.407767 C98.7721772,221.407767 108.407767,211.804675 108.407767,200.062902 C108.407767,188.23726 98.7721772,178.592233 86.9581061,178.592233 Z" id="Combined-Shape" style="fill: rgb(255, 255, 255);"/>
            <g id="Group-4" transform="translate(76.000000, 0.000000)">
              <g id="Group-3" transform="translate(58.500000, 59.000000) rotate(45.000000) translate(-58.500000, -59.000000) translate(17.000000, 18.000000)">
                <polygon id="-copy" transform="translate(41.767767, 41.000000) rotate(-45.000000) translate(-41.767767, -41.000000) " points="29.5355339 76 64.5355339 41 29.5355339 6 19 16.5355339 43.2457161 41 19 65.4644661" style="fill: rgb(255, 255, 255);"/>
              </g>
              <g id="Group-3-Copy" transform="translate(76.500000, 101.000000) scale(-1, 1) rotate(45.000000) translate(-76.500000, -101.000000) translate(35.000000, 60.000000)">
                <polygon id="-copy" transform="translate(41.767767, 41.000000) rotate(-45.000000) translate(-41.767767, -41.000000) " points="29.5355339 76 64.5355339 41 29.5355339 6 19 16.5355339 43.2457161 41 19 65.4644661" style="fill: rgb(255, 255, 255);"/>
              </g>
            </g>
          </g>
        </g>
      </g>
    </g>
  </g>
</svg>