<?xml version="1.0" encoding="utf-8"?>
<svg width="386px" height="113px" viewBox="0 0 386 113" version="1.1" xmlns="http://www.w3.org/2000/svg">
  <defs/>
  <title>Group 2</title>
  <desc>Created with Sketch.</desc>
  <g id="Page-1" stroke="none" stroke-width="1" fill="none" fill-rule="evenodd">
    <g id="Artboard-Copy-15" transform="translate(-186.000000, -179.000000)" fill="#242424" fill-rule="nonzero">
      <g id="Group-2" transform="translate(151.000000, 155.000000)">
        <g id="Group">
          <path d="M221.979129,45 C241.221825,45 257,60.7875895 257,80.1252983 C257,99.2959427 241.221825,115 221.937388,115 C202.736434,115 187,99.2959427 187,80.1252983 C187,60.7875895 202.736434,45 221.979129,45 Z M280.915493,45 L280.915493,74.8343672 L300.431649,45 L316.544325,45 L294.27092,78.7723325 L319,114 L302.025684,114 L280.915493,83.780397 L280.915493,114 L267,114 L267,45 L280.915493,45 Z M148.915493,45 L148.915493,74.8343672 L168.431649,45 L184.544325,45 L162.27092,78.7723325 L187,114 L170.025684,114 L148.915493,83.780397 L148.915493,114 L135,114 L135,45 L148.915493,45 Z M370,45 L370,58.6544665 L342.666667,58.6544665 L342.666667,72.1377171 L366.119342,72.1377171 L366.119342,85.9633995 L342.666667,85.9633995 L342.666667,100.217122 L370,100.217122 L370,114 L329,114 L329,45 L370,45 Z M393.666667,45 L393.666667,100.217122 L421,100.217122 L421,114 L380,114 L380,45 L393.666667,45 Z M221.958106,58.592233 C210.185929,58.592233 200.592233,68.2372603 200.592233,80.0629024 C200.592233,91.8046746 210.185929,101.407767 221.958106,101.407767 C233.772177,101.407767 243.407767,91.8046746 243.407767,80.0629024 C243.407767,68.2372603 233.772177,58.592233 221.958106,58.592233 Z" id="Combined-Shape" style="fill: rgb(255, 255, 255);"/>
          <g id="Group-4">
            <g id="Group-3" transform="translate(58.500000, 59.000000) rotate(45.000000) translate(-58.500000, -59.000000) translate(17.000000, 18.000000)">
              <polygon id="-copy" transform="translate(41.767767, 41.000000) rotate(-45.000000) translate(-41.767767, -41.000000) " points="29.5355339 76 64.5355339 41 29.5355339 6 19 16.5355339 43.2457161 41 19 65.4644661" style="fill: rgb(255, 255, 255);"/>
            </g>
            <g id="Group-3-Copy" transform="translate(76.500000, 101.000000) scale(-1, 1) rotate(45.000000) translate(-76.500000, -101.000000) translate(35.000000, 60.000000)">
              <polygon id="-copy" transform="translate(41.767767, 41.000000) rotate(-45.000000) translate(-41.767767, -41.000000) " points="29.5355339 76 64.5355339 41 29.5355339 6 19 16.5355339 43.2457161 41 19 65.4644661" style="fill: rgb(255, 255, 255);"/>
            </g>
          </g>
        </g>
      </g>
    </g>
  </g>
</svg>